# Blender 5.2.0 LTS
# www.blender.org
mtllib hypermag.mtl
o hyper_sniper_mag
v 0.080356 0.080491 0.163975
v 0.080353 -0.024636 -0.061347
v 0.080353 0.080502 -0.061338
v 0.080356 -0.024646 0.163965
v -0.012471 0.185635 -0.061325
v -0.012471 0.185624 0.163987
v -0.012471 0.091509 -0.061334
v -0.012471 0.091498 0.163978
v -0.105299 0.019401 -0.061338
v -0.105296 0.019391 0.163974
v -0.105299 -0.063717 -0.061345
v -0.105296 -0.063727 0.163966
v -0.049773 0.185635 -0.061324
v -0.049769 0.185624 0.163988
v -0.012471 0.185635 -0.061325
v -0.012471 0.185624 0.163987
v 0.035587 -0.170231 -0.072604
v -0.111749 -0.170231 -0.072599
v -0.111746 -0.170243 0.176348
v 0.035591 -0.170243 0.176344
v 0.035591 -0.170243 0.176344
v -0.111746 -0.170243 0.176348
v 0.035591 -0.228040 0.176340
v -0.111746 -0.228040 0.176344
v -0.049769 0.097004 0.163979
v -0.012471 0.185624 0.163987
v -0.049769 0.185624 0.163988
v -0.012471 0.091498 0.163978
v -0.105296 -0.063727 0.163966
v -0.105296 0.019391 0.163974
v -0.142593 -0.047214 0.163969
v -0.142593 0.030400 0.163976
v 0.080356 -0.024646 0.163965
v 0.080356 0.080491 0.163975
v 0.043058 -0.013637 0.163968
v 0.043058 0.085993 0.163976
v -0.142597 -0.047203 -0.061342
v -0.142593 -0.047214 0.163969
v -0.142597 0.030410 -0.061335
v -0.142593 0.030400 0.163976
v -0.049773 0.097014 -0.061332
v -0.049769 0.185624 0.163988
v -0.049773 0.185635 -0.061324
v -0.049769 0.097004 0.163979
v 0.043055 -0.013627 -0.061345
v 0.043058 0.085993 0.163976
v 0.043055 0.086004 -0.061335
v 0.043058 -0.013637 0.163968
v -0.111749 -0.228029 -0.072605
v 0.035587 -0.228029 -0.072608
v 0.035591 -0.228040 0.176340
v -0.111746 -0.228040 0.176344
v -0.105299 -0.063717 -0.061345
v -0.105296 -0.063727 0.163966
v -0.142597 -0.047203 -0.061342
v -0.142593 -0.047214 0.163969
v 0.035587 -0.170231 -0.072604
v -0.111749 -0.228029 -0.072605
v -0.111749 -0.170231 -0.072599
v 0.035587 -0.228029 -0.072608
v -0.105299 0.019401 -0.061338
v -0.142597 -0.047203 -0.061342
v -0.142597 0.030410 -0.061335
v -0.105299 -0.063717 -0.061345
v -0.012471 0.185635 -0.061325
v -0.049773 0.097014 -0.061332
v -0.049773 0.185635 -0.061324
v -0.012471 0.091509 -0.061334
v 0.080353 0.080502 -0.061338
v 0.043055 -0.013627 -0.061345
v 0.043055 0.086004 -0.061335
v 0.080353 -0.024636 -0.061347
v -0.179018 -0.084385 0.165190
v 0.160597 -0.172278 -0.061419
v -0.179021 -0.084374 -0.061402
v 0.160600 -0.172289 0.165173
v -0.235935 -0.084385 0.165191
v -0.235939 -0.084374 -0.061400
v -0.235935 -0.172289 0.165184
v 0.160600 -0.172289 0.165173
v -0.179018 -0.084385 0.165190
v -0.235935 -0.084385 0.165191
v -0.235939 -0.172278 -0.061407
v -0.235935 -0.172289 0.165184
v -0.235939 -0.084374 -0.061400
v -0.235935 -0.084385 0.165191
v -0.235939 -0.172278 -0.061407
v 0.160597 -0.172278 -0.061419
v 0.160600 -0.172289 0.165173
v -0.235935 -0.172289 0.165184
v -0.179021 -0.084374 -0.061402
v -0.235939 -0.172278 -0.061407
v -0.235939 -0.084374 -0.061400
v 0.160597 -0.172278 -0.061419
v 0.080453 -0.024646 0.163963
v 0.080450 -0.129771 -0.061358
v 0.080450 -0.024636 -0.061348
v 0.080453 -0.129782 0.163953
v -0.012374 0.091509 -0.061335
v -0.012371 0.091498 0.163976
v -0.012374 -0.002617 -0.061344
v -0.012371 -0.002627 0.163968
v -0.105202 0.185635 -0.061325
v -0.105198 0.185624 0.163988
v -0.105202 0.102520 -0.061332
v -0.105198 0.102509 0.163979
v -0.142500 0.185635 -0.061324
v -0.142496 0.185624 0.163989
v -0.105202 0.185635 -0.061325
v -0.105198 0.185624 0.163988
v -0.270166 -0.193992 -0.072599
v -0.270163 -0.194004 0.176350
v -0.245876 -0.170243 0.176351
v -0.245880 -0.170231 -0.072598
v -0.111652 -0.170231 -0.072601
v -0.111648 -0.170243 0.176347
v -0.111648 -0.170243 0.176347
v -0.245876 -0.170243 0.176351
v -0.111648 -0.228040 0.176341
v -0.270163 -0.228040 0.176346
v -0.270163 -0.194004 0.176350
v 0.080453 -0.129782 0.163953
v 0.080453 -0.024646 0.163963
v 0.043155 -0.113268 0.163956
v 0.043155 -0.013637 0.163965
v -0.105198 0.102509 0.163979
v -0.105198 0.185624 0.163988
v -0.142496 0.108014 0.163981
v -0.142496 0.185624 0.163989
v -0.049669 0.008381 0.163969
v -0.012371 0.091498 0.163976
v -0.049669 0.097004 0.163978
v -0.012371 -0.002627 0.163968
v -0.142500 0.108025 -0.061331
v -0.142496 0.108014 0.163981
v -0.142500 0.185635 -0.061324
v -0.142496 0.185624 0.163989
v -0.049672 0.008392 -0.061342
v -0.049669 0.097004 0.163978
v -0.049672 0.097014 -0.061334
v -0.049669 0.008381 0.163969
v -0.270166 -0.228029 -0.072602
v -0.270163 -0.228040 0.176346
v -0.270166 -0.193992 -0.072599
v -0.270163 -0.194004 0.176350
v 0.043152 -0.113258 -0.061355
v 0.043155 -0.013637 0.163965
v 0.043152 -0.013627 -0.061347
v 0.043155 -0.113268 0.163956
v -0.270166 -0.228029 -0.072602
v -0.111652 -0.228029 -0.072607
v -0.111648 -0.228040 0.176341
v -0.270163 -0.228040 0.176346
v 0.080450 -0.129771 -0.061358
v 0.080453 -0.129782 0.163953
v 0.043152 -0.113258 -0.061355
v 0.043155 -0.113268 0.163956
v -0.245880 -0.170231 -0.072598
v -0.270166 -0.228029 -0.072602
v -0.270166 -0.193992 -0.072599
v -0.111652 -0.228029 -0.072607
v -0.111652 -0.170231 -0.072601
v -0.105202 0.185635 -0.061325
v -0.142500 0.108025 -0.061331
v -0.142500 0.185635 -0.061324
v -0.105202 0.102520 -0.061332
v 0.080450 -0.024636 -0.061348
v 0.043152 -0.113258 -0.061355
v 0.043152 -0.013627 -0.061347
v 0.080450 -0.129771 -0.061358
v -0.012374 0.091509 -0.061335
v -0.049672 0.008392 -0.061342
v -0.049672 0.097014 -0.061334
v -0.012374 -0.002617 -0.061344
v 0.144543 -0.168238 -0.055828
v 0.144543 0.230860 -0.055792
v 0.144543 0.230849 0.158158
v 0.144543 -0.168247 0.158121
v 0.144543 0.230860 -0.055792
v -0.224448 0.230860 -0.055782
v -0.224444 0.230849 0.158168
v 0.144543 0.230849 0.158158
v -0.224444 -0.168247 0.158132
v 0.144543 -0.168247 0.158121
v -0.224444 0.230849 0.158168
v 0.144543 0.230849 0.158158
v -0.224448 0.230860 -0.055782
v -0.224448 -0.168238 -0.055818
v -0.224444 -0.168247 0.158132
v -0.224444 0.230849 0.158168
v -0.224448 -0.168238 -0.055818
v 0.144543 -0.168238 -0.055828
v 0.144543 -0.168247 0.158121
v -0.224444 -0.168247 0.158132
v -0.224448 0.230860 -0.055782
v 0.144543 0.230860 -0.055792
v 0.144543 -0.168238 -0.055828
v -0.224448 -0.168238 -0.055818
v 0.080396 0.185638 -0.061326
v 0.080399 0.185628 0.163987
v 0.080396 0.080502 -0.061335
v 0.080399 0.080488 0.163976
v -0.012428 -0.002617 -0.061341
v -0.012425 -0.002628 0.163972
v -0.012428 -0.096745 -0.061348
v -0.012425 -0.096755 0.163963
v -0.105256 0.102520 -0.061328
v -0.105252 0.102509 0.163984
v -0.105256 0.019400 -0.061335
v -0.105252 0.019390 0.163976
v 0.043098 0.185638 -0.061325
v 0.043101 0.185628 0.163988
v 0.080396 0.185638 -0.061326
v 0.080399 0.185628 0.163987
v 0.160158 -0.170231 -0.072605
v 0.160162 -0.170243 0.176343
v 0.227668 -0.228029 -0.072612
v 0.227672 -0.228041 0.176337
v 0.160158 -0.170231 -0.072605
v 0.035630 -0.170231 -0.072601
v 0.035634 -0.170243 0.176347
v 0.160162 -0.170243 0.176343
v 0.160162 -0.170243 0.176343
v 0.035634 -0.228041 0.176341
v 0.227672 -0.228041 0.176337
v 0.035634 -0.170243 0.176347
v -0.105252 0.019390 0.163976
v -0.105252 0.102509 0.163984
v -0.142550 0.030399 0.163978
v -0.142550 0.108011 0.163985
v -0.049726 -0.080241 0.163966
v -0.012425 -0.002628 0.163972
v -0.049726 0.008381 0.163974
v -0.012425 -0.096755 0.163963
v 0.080399 0.080488 0.163976
v 0.080399 0.185628 0.163987
v 0.043101 0.085993 0.163978
v 0.043101 0.185628 0.163988
v -0.142554 0.030410 -0.061334
v -0.142550 0.030399 0.163978
v -0.142554 0.108025 -0.061326
v -0.142550 0.108011 0.163985
v -0.049726 -0.080231 -0.061347
v -0.049726 0.008381 0.163974
v -0.049726 0.008391 -0.061338
v -0.049726 -0.080241 0.163966
v 0.043098 0.086004 -0.061334
v 0.043101 0.185628 0.163988
v 0.043098 0.185638 -0.061325
v 0.043101 0.085993 0.163978
v 0.035630 -0.228029 -0.072607
v 0.227668 -0.228029 -0.072612
v 0.227672 -0.228041 0.176337
v 0.035634 -0.228041 0.176341
v -0.012428 -0.096745 -0.061348
v -0.012425 -0.096755 0.163963
v -0.049726 -0.080231 -0.061347
v -0.049726 -0.080241 0.163966
v 0.160158 -0.170231 -0.072605
v 0.035630 -0.228029 -0.072607
v 0.035630 -0.170231 -0.072601
v 0.227668 -0.228029 -0.072612
v -0.012428 -0.002617 -0.061341
v -0.049726 -0.080231 -0.061347
v -0.049726 0.008391 -0.061338
v -0.012428 -0.096745 -0.061348
v -0.105256 0.102520 -0.061328
v -0.142554 0.030410 -0.061334
v -0.142554 0.108025 -0.061326
v -0.105256 0.019400 -0.061335
v 0.080396 0.185638 -0.061326
v 0.043098 0.086004 -0.061334
v 0.043098 0.185638 -0.061325
v 0.080396 0.080502 -0.061335
vn 1.0000 -0.0000 -0.0000
vn -0.0000 1.0000 -0.0000
vn -0.0000 -0.0001 1.0000
vn 0.0001 -0.0001 1.0000
vn -1.0000 -0.0000 -0.0000
vn -0.0000 -1.0000 -0.0000
vn -0.4017 -0.9158 -0.0000
vn -0.0000 0.0001 -1.0000
vn -0.0001 0.0001 -1.0000
vn 0.1233 0.9924 -0.0000
vn 0.2467 0.9691 -0.0000
vn -0.4332 0.9013 -0.0000
vn -0.9703 0.2419 -0.0000
vn -0.4332 0.9013 0.0001
vn -0.9703 0.2418 -0.0000
vn -0.4016 -0.9158 -0.0000
vn -0.0000 1.0000 0.0001
vn 0.6504 0.7596 -0.0000
vt -0.325365 0.361838
vt -0.267746 0.324480
vt -0.267746 0.361838
vt -0.325365 0.324480
vt -0.267746 0.399197
vt -0.325365 0.399197
vt -0.267746 0.365750
vt -0.325365 0.365750
vt -0.267746 0.340127
vt -0.325365 0.340127
vt -0.267746 0.310593
vt -0.325365 0.310593
vt -0.290218 0.296746
vt -0.290218 0.354364
vt -0.303186 0.296746
vt -0.303186 0.354364
vt -0.319895 0.293870
vt -0.268670 0.293870
vt -0.268670 0.357533
vt -0.319895 0.357533
vt -0.273509 0.272744
vt -0.324734 0.272744
vt -0.273509 0.252207
vt -0.324734 0.252207
vt -0.303186 0.367706
vt -0.290218 0.399197
vt -0.303186 0.399197
vt -0.290218 0.365750
vt -0.322492 0.310593
vt -0.322492 0.340127
vt -0.335459 0.316460
vt -0.335459 0.344039
vt -0.257945 0.324480
vt -0.257945 0.361838
vt -0.270913 0.328391
vt -0.270913 0.363794
vt -0.325658 0.316460
vt -0.268039 0.316460
vt -0.325658 0.344039
vt -0.268039 0.344039
vt -0.325658 0.367706
vt -0.268039 0.399197
vt -0.325658 0.399197
vt -0.268039 0.367706
vt -0.325658 0.328391
vt -0.268039 0.363794
vt -0.325658 0.363794
vt -0.268039 0.328391
vt -0.324734 0.293870
vt -0.273509 0.293870
vt -0.273509 0.357533
vt -0.324734 0.357533
vt -0.322492 0.296746
vt -0.322492 0.354364
vt -0.335459 0.296746
vt -0.335459 0.354364
vt -0.319895 0.272744
vt -0.268670 0.252207
vt -0.268670 0.272744
vt -0.319895 0.252207
vt -0.270913 0.340127
vt -0.257945 0.316460
vt -0.257945 0.344039
vt -0.270913 0.310593
vt -0.290218 0.367706
vt -0.303186 0.365750
vt -0.335459 0.361838
vt -0.322492 0.328391
vt -0.322492 0.363794
vt -0.335459 0.324480
vt 18.049101 -30.971001
vt 17.931101 -31.028999
vt 18.049101 -31.028999
vt 17.931101 -30.971001
vt 18.068899 -30.971001
vt 18.068899 -31.028999
vt 17.931101 -31.015600
vt 18.068899 -31.015600
vt 17.950899 -30.984400
vt 17.931101 -30.984400
vt 17.971001 -31.015600
vt 18.028999 -31.015600
vt 17.971001 -30.984400
vt 18.028999 -30.984400
vt 18.049101 -30.984400
vt 18.068899 -30.984400
vt -1.229710 -0.323668
vt -1.172090 -0.361026
vt -1.172090 -0.323668
vt -1.229710 -0.361026
vt -1.172090 -0.282397
vt -1.229710 -0.282397
vt -1.172090 -0.315844
vt -1.229710 -0.315844
vt -1.172090 -0.248951
vt -1.229710 -0.248951
vt -1.172090 -0.278485
vt -1.229710 -0.278485
vt -1.184490 -0.351402
vt -1.184490 -0.293783
vt -1.197450 -0.351402
vt -1.197450 -0.293783
vt -1.148540 -0.290614
vt -1.140100 -0.354277
vt -1.140100 -0.290614
vt -1.148540 -0.354277
vt -1.195210 -0.354277
vt -1.195210 -0.290614
vt -1.206890 -0.375403
vt -1.253560 -0.375403
vt -1.206890 -0.395941
vt -1.262000 -0.395941
vt -1.262000 -0.383847
vt -1.140100 -0.361026
vt -1.140100 -0.323668
vt -1.153070 -0.355158
vt -1.153070 -0.319756
vt -1.204650 -0.278485
vt -1.204650 -0.248951
vt -1.217610 -0.276529
vt -1.217610 -0.248951
vt -1.185340 -0.311932
vt -1.172370 -0.282397
vt -1.185340 -0.280441
vt -1.172370 -0.315844
vt -1.230010 -0.276529
vt -1.172390 -0.276529
vt -1.230010 -0.248951
vt -1.172390 -0.248951
vt -1.230010 -0.311932
vt -1.172390 -0.280441
vt -1.230010 -0.280441
vt -1.172390 -0.311932
vt -1.232880 -0.395941
vt -1.169220 -0.395941
vt -1.232880 -0.383847
vt -1.169220 -0.383847
vt -1.230010 -0.355158
vt -1.172390 -0.319756
vt -1.230010 -0.319756
vt -1.172390 -0.355158
vt -1.262000 -0.354277
vt -1.206890 -0.354277
vt -1.206890 -0.290614
vt -1.262000 -0.290614
vt -1.140100 -0.351402
vt -1.140100 -0.293783
vt -1.153070 -0.351402
vt -1.153070 -0.293783
vt -1.148540 -0.375403
vt -1.140100 -0.395941
vt -1.140100 -0.383847
vt -1.195210 -0.395941
vt -1.195210 -0.375403
vt -1.197450 -0.248951
vt -1.184490 -0.276529
vt -1.184490 -0.248951
vt -1.197450 -0.278485
vt -1.262000 -0.323668
vt -1.249030 -0.355158
vt -1.249030 -0.319756
vt -1.262000 -0.361026
vt -1.229730 -0.282397
vt -1.216760 -0.311932
vt -1.216760 -0.280441
vt -1.229730 -0.315844
vt 14.027400 0.929094
vt 14.027400 1.070910
vt 13.972600 1.070910
vt 13.972600 0.929094
vt 13.935900 0.972644
vt 14.064100 0.972644
vt 14.064100 1.027360
vt 13.935900 1.027360
vt 13.935900 0.929094
vt 14.064100 0.929094
vt 13.935900 1.070910
vt 14.064100 1.070910
vt -0.489195 0.128566
vt -0.546813 0.128566
vt -0.489195 0.091207
vt -0.546813 0.091207
vt -0.489195 0.061673
vt -0.546813 0.061673
vt -0.489195 0.028226
vt -0.546813 0.028226
vt -0.489195 0.099031
vt -0.546813 0.099031
vt -0.489195 0.069496
vt -0.546813 0.069496
vt -0.518339 0.026115
vt -0.518339 0.083734
vt -0.531307 0.026115
vt -0.531307 0.083734
vt -0.559037 0.023239
vt -0.559037 0.086903
vt -0.582509 0.023239
vt -0.582509 0.086903
vt -0.515742 0.023239
vt -0.515742 0.086903
vt -0.477264 0.002113
vt -0.520559 -0.018424
vt -0.453792 -0.018424
vt -0.520559 0.002113
vt -0.569541 0.069496
vt -0.569541 0.099031
vt -0.582509 0.073409
vt -0.582509 0.100987
vt -0.550236 0.034094
vt -0.537268 0.061673
vt -0.550236 0.065585
vt -0.537268 0.028226
vt -0.504994 0.091207
vt -0.504994 0.128566
vt -0.517962 0.093163
vt -0.517962 0.128566
vt -0.547107 0.073409
vt -0.489488 0.073409
vt -0.547107 0.100987
vt -0.489488 0.100987
vt -0.547107 0.034094
vt -0.489488 0.065585
vt -0.547107 0.065585
vt -0.489488 0.034094
vt -0.547107 0.093163
vt -0.489488 0.128566
vt -0.547107 0.128566
vt -0.489488 0.093163
vt -0.520559 0.023239
vt -0.453792 0.023239
vt -0.453792 0.086903
vt -0.520559 0.086903
vt -0.537268 0.026115
vt -0.537268 0.083734
vt -0.550236 0.026115
vt -0.550236 0.083734
vt -0.559037 0.002113
vt -0.515742 -0.018424
vt -0.515742 0.002113
vt -0.582509 -0.018424
vt -0.499033 0.061673
vt -0.486065 0.034094
vt -0.486065 0.065585
vt -0.499033 0.028226
vt -0.466760 0.099031
vt -0.453792 0.073409
vt -0.453792 0.100987
vt -0.466760 0.069496
vt -0.531307 0.128566
vt -0.518339 0.093163
vt -0.518339 0.128566
vt -0.531307 0.091207
s 1
usemtl Meshpart1Mtl.003
f 1/1/1 2/2/1 3/3/1
f 2/2/1 1/1/1 4/4/1
f 5/5/1 6/6/1 7/7/1
f 7/7/1 6/6/1 8/8/1
f 9/9/1 10/10/1 11/11/1
f 11/11/1 10/10/1 12/12/1
f 13/13/2 14/14/2 15/15/2
f 15/15/2 14/14/2 16/16/2
f 17/17/2 18/18/2 19/19/2
f 17/17/2 19/19/2 20/20/2
f 21/21/3 22/22/3 23/23/3
f 24/24/3 23/23/3 22/22/3
f 25/25/3 26/26/3 27/27/3
f 26/26/3 25/25/3 28/28/3
f 29/29/3 30/30/3 31/31/3
f 31/31/3 30/30/3 32/32/4
f 33/33/3 34/34/3 35/35/3
f 35/35/3 34/34/3 36/36/3
f 37/37/5 38/38/5 39/39/5
f 39/39/5 38/38/5 40/40/5
f 41/41/5 42/42/5 43/43/5
f 42/42/5 41/41/5 44/44/5
f 45/45/5 46/46/5 47/47/5
f 46/46/5 45/45/5 48/48/5
f 49/49/6 50/50/6 51/51/6
f 49/49/6 51/51/6 52/52/6
f 53/53/7 54/54/7 55/55/7
f 55/55/7 54/54/7 56/56/7
f 57/57/8 58/58/8 59/59/8
f 58/58/8 57/57/8 60/60/8
f 61/61/8 62/62/8 63/63/8
f 62/62/8 61/61/8 64/64/8
f 65/27/8 66/65/8 67/26/8
f 66/65/8 65/27/8 68/66/8
f 69/67/9 70/68/8 71/69/9
f 70/68/8 69/67/9 72/70/8
usemtl Meshpart2Mtl.001
f 73/71/10 74/72/11 75/73/10
f 74/72/11 73/71/10 76/74/11
f 75/73/10 77/75/2 73/71/10
f 78/76/2 77/75/2 75/73/10
f 79/77/3 80/78/3 81/79/3
f 79/77/3 81/79/3 82/80/3
f 83/81/5 84/82/5 85/83/5
f 85/83/5 84/82/5 86/84/5
f 87/72/6 88/76/6 89/75/6
f 87/72/6 89/75/6 90/74/6
f 91/85/8 92/78/8 93/86/8
f 94/77/8 92/78/8 91/85/8
usemtl Meshpart3Mtl.001
f 95/87/1 96/88/1 97/89/1
f 96/88/1 95/87/1 98/90/1
f 99/91/1 100/92/1 101/93/1
f 101/93/1 100/92/1 102/94/1
f 103/95/1 104/96/1 105/97/1
f 105/97/1 104/96/1 106/98/1
f 107/99/2 108/100/2 109/101/2
f 109/101/2 108/100/2 110/102/2
f 113/103/12 111/104/13 112/105/13
f 111/104/13 113/103/12 114/106/14
f 115/107/2 114/106/14 113/103/12
f 115/107/2 113/103/12 116/108/2
f 117/109/3 118/110/3 119/111/3
f 118/110/3 120/112/3 119/111/3
f 120/112/3 118/110/3 121/113/4
f 122/114/3 123/115/3 124/116/3
f 124/116/3 123/115/3 125/117/3
f 126/118/3 127/119/3 128/120/3
f 128/120/3 127/119/3 129/121/3
f 130/122/3 131/123/3 132/124/3
f 131/123/3 130/122/3 133/125/3
f 134/126/5 135/127/5 136/128/5
f 136/128/5 135/127/5 137/129/5
f 138/130/5 139/131/5 140/132/5
f 139/131/5 138/130/5 141/133/5
f 142/134/5 143/135/5 144/136/15
f 144/136/15 143/135/5 145/137/15
f 146/138/5 147/139/5 148/140/5
f 147/139/5 146/138/5 149/141/5
f 150/142/6 151/143/6 152/144/6
f 150/142/6 152/144/6 153/145/6
f 154/146/16 155/147/7 156/148/7
f 156/148/7 155/147/7 157/149/7
f 158/150/8 159/151/8 160/152/8
f 158/150/8 161/153/8 159/151/8
f 161/153/8 158/150/8 162/154/8
f 163/155/8 164/156/8 165/157/8
f 164/156/8 163/155/8 166/158/8
f 167/159/8 168/160/8 169/161/8
f 168/160/8 167/159/8 170/162/8
f 171/163/8 172/164/8 173/165/8
f 172/164/8 171/163/8 174/166/8
usemtl Meshpart4Mtl
f 175/167/1 176/168/1 177/169/1
f 175/167/1 177/169/1 178/170/1
f 179/171/17 180/172/17 181/173/17
f 179/171/17 181/173/17 182/174/17
f 183/175/3 184/176/3 185/177/3
f 184/176/3 186/178/3 185/177/3
f 187/169/5 188/170/5 189/167/5
f 187/169/5 189/167/5 190/168/5
f 191/171/6 192/172/6 193/173/6
f 191/171/6 193/173/6 194/174/6
f 195/178/8 196/177/8 197/175/8
f 195/178/8 197/175/8 198/176/8
usemtl Meshpart5Mtl.001
f 199/179/1 200/180/1 201/181/1
f 201/181/1 200/180/1 202/182/1
f 203/183/1 204/184/1 205/185/1
f 205/185/1 204/184/1 206/186/1
f 207/187/1 208/188/1 209/189/1
f 209/189/1 208/188/1 210/190/1
f 211/191/2 212/192/2 213/193/2
f 213/193/2 212/192/2 214/194/2
f 215/195/18 216/196/18 217/197/18
f 217/197/18 216/196/18 218/198/18
f 219/195/2 220/199/2 221/200/2
f 219/195/2 221/200/2 222/196/2
f 223/201/3 224/202/3 225/203/3
f 224/202/3 223/201/3 226/204/3
f 227/205/3 228/206/3 229/207/3
f 229/207/3 228/206/3 230/208/3
f 231/209/3 232/210/3 233/211/3
f 232/210/3 231/209/3 234/212/3
f 235/213/3 236/214/3 237/215/3
f 237/215/3 236/214/3 238/216/3
f 239/217/5 240/218/5 241/219/5
f 241/219/5 240/218/5 242/220/5
f 243/221/5 244/222/5 245/223/5
f 244/222/5 243/221/5 246/224/5
f 247/225/5 248/226/5 249/227/5
f 248/226/5 247/225/5 250/228/5
f 251/229/6 252/230/6 253/231/6
f 251/229/6 253/231/6 254/232/6
f 255/233/7 256/234/7 257/235/7
f 257/235/7 256/234/7 258/236/7
f 259/237/8 260/238/8 261/239/8
f 260/238/8 259/237/8 262/240/8
f 263/241/8 264/242/8 265/243/8
f 264/242/8 263/241/8 266/244/8
f 267/245/8 268/246/8 269/247/8
f 268/246/8 267/245/8 270/248/8
f 271/249/8 272/250/8 273/251/8
f 272/250/8 271/249/8 274/252/8
